# xmcd CD database file
#
# Track frame offsets:
#	150
#	14055
#	26513
#	36298
#	47133
#	59879
#	73705
#	83649
#	98362
#	107167
#	122026
#	133658
#	146260
#	156798
#	168595
#	185508
#	197263
#	207106
#	217086
#	225199
#
# Disc length: 3178 seconds
#
# Revision: 1
# Processed by: cddbd v1.5.1PL0 Copyright (c) Steve Scherf et al.
# Submitted via: CDex 1.40Release
#
DISCID=170c6814
DTITLE=Willie Nelson - Things To Remember
DYEAR=2000
DGENRE=Country
TTITLE0=The Last Letter
TTITLE1=The Shelter of Your Dream
TTITLE2=Ashamed
TTITLE3=Suffering in Silence
TTITLE4=I Just Don't Understand
TTITLE5=Home Is Where You're Happy
TTITLE6=Broken Promises
TTITLE7=Face of a Fighter
TTITLE8=Why Are You Picking On Me
TTITLE9=And So Will You My Love
TTITLE10=I Hope So
TTITLE11=Any Old Arms Won't Do
TTITLE12=I Fell Sorry For Him
TTITLE13=End Of Understanding
TTITLE14=I Let My Mind Wander
TTITLE15=Touch Me
TTITLE16=Half A Man
TTITLE17=Healing Hands Of Time
TTITLE18=Things To Remember
TTITLE19=You'll Always Have Someone
EXTD=YEAR: 2000 ID3G: 2
EXTT0=
EXTT1=
EXTT2=
EXTT3=
EXTT4=
EXTT5=
EXTT6=
EXTT7=
EXTT8=
EXTT9=
EXTT10=
EXTT11=
EXTT12=
EXTT13=
EXTT14=
EXTT15=
EXTT16=
EXTT17=
EXTT18=
EXTT19=
PLAYORDER=
